<?xml version="1.0" standalone="no"?>
<!DOCTYPE svg PUBLIC "-//W3C//DTD SVG 1.1//EN" "http://www.w3.org/Graphics/SVG/1.1/DTD/svg11.dtd" >
<svg xmlns="http://www.w3.org/2000/svg">
<metadata>
Created by FontPrep 20130207 at Thu Apr  7 10:10:04 2016
 By Chameleon
Copyright (c) 1989, 1990, 2002 Adobe Systems Incorporated.  All Rights Reserved. (c) 1981, 2002 Heidelberger Druckmaschinen AG. All rights reserved.
</metadata>
<defs>
<font id="baa2b4336bfeb9872a50f10bdb06e378" horiz-adv-x='1024' >
  <font-face 
    font-family="TradeGothicLTStd"
    font-weight="400"
    font-stretch="normal"
    units-per-em="2048"
    panose-1="0 0 5 0 0 0 0 0 0 0"
    ascent="1479"
    descent="-569"
    x-height="1065"
    cap-height="1479"
    bbox="-342 -459 2048 1966"
    underline-thickness="102"
    underline-position="-102"
    unicode-range="U+0020-FB02"
  />
<missing-glyph 
d="M102 1239v-1044l349 522zM164 102h696l-348 523zM573 717l349 -522v1044zM512 809l348 522h-696zM0 0v1434h1024v-1434h-1024z" />
    <glyph glyph-name="fi" unicode="fi" horiz-adv-x="1138" 
d="M813 1499h148v-176h-148v176zM813 0v1065h148v-1065h-148zM356 1221v-156h232v-127h-232v-938h-147v938h-180v127h180v121q0 180 61 247t199 66q23 0 131 -10v-131l-106 14q-76 0 -107 -32t-31 -119z" />
    <glyph glyph-name="fl" unicode="fl" horiz-adv-x="1138" 
d="M813 1479h148v-1479h-148v1479zM356 1221v-156h232v-127h-232v-938h-147v938h-180v127h180v121q0 180 61 247t199 66q23 0 131 -10v-131l-106 14q-76 0 -107 -32t-31 -119z" />
    <glyph glyph-name=".notdef" 
d="M102 1239v-1044l349 522zM164 102h696l-348 523zM573 717l349 -522v1044zM512 809l348 522h-696zM0 0v1434h1024v-1434h-1024z" />
    <glyph glyph-name=".null" horiz-adv-x="0" 
 />
    <glyph glyph-name="nonmarkingreturn" horiz-adv-x="681" 
 />
    <glyph glyph-name="space" unicode=" " horiz-adv-x="624" 
 />
    <glyph glyph-name="exclam" unicode="!" horiz-adv-x="681" 
d="M240 225h200v-225h-200v225zM231 1479h218l-43 -1012h-132z" />
    <glyph glyph-name="quotedbl" unicode="&#x22;" horiz-adv-x="681" 
d="M399 926v553h127v-553h-127zM156 926v553h127v-553h-127z" />
    <glyph glyph-name="numbersign" unicode="#" horiz-adv-x="1251" 
d="M125 471v115h219l41 311h-203v115h219l64 467h127l-64 -467h279l61 467h127l-61 -467h192v-115h-208l-44 -311h195v-115h-211l-63 -471h-127l63 471h-276l-64 -471h-127l64 471h-203zM512 897l-41 -311h277l43 311h-279z" />
    <glyph glyph-name="dollar" unicode="$" horiz-adv-x="1251" 
d="M563 1479v157h139v-157q116 -8 218 -79t161 -163l-106 -86q-45 76 -119 131t-154 70v-535q230 -74 332 -167t102 -261q0 -169 -127 -279q-128 -110 -307 -110v-254h-139v254q-227 4 -450 268l118 90q59 -86 149 -156t183 -75v571q-140 33 -260 112q-70 46 -112 121
t-41 171q0 180 122 278t291 99zM989 388q0 117 -85 176t-202 95v-532q117 6 202 75t85 186zM563 854v498q-123 2 -197 -60t-69 -166q0 -219 266 -272z" />
    <glyph glyph-name="percent" unicode="%" horiz-adv-x="1820" 
d="M424 -20l850 1519h121l-850 -1519h-121zM465 926q92 0 153 59q62 59 62 153t-62 154t-153 60t-153 -60t-62 -153q0 -94 61 -154q62 -59 154 -59zM465 799q-143 0 -243 98q-99 97 -99 241t99 242q98 98 242 98t244 -98t99 -241q0 -143 -99 -242q-100 -98 -243 -98zM1356 0
q-143 0 -243 98q-99 98 -99 242t99 242t243 98t242 -98q100 -98 100 -242t-100 -242t-242 -98zM1356 127q92 0 153 59q61 60 61 154t-60 154q-62 60 -154 59q-92 0 -154 -59q-62 -60 -61 -154q0 -94 61 -154q62 -59 154 -59z" />
    <glyph glyph-name="ampersand" unicode="&#x26;" horiz-adv-x="1366" 
d="M254 389q0 -127 90 -199t209 -71q172 0 299 123q-229 264 -373 495q-109 -73 -167 -147t-58 -201zM1298 147v-147h-53q-55 0 -141 43t-150 104q-156 -168 -422 -167q-180 0 -311 118t-131 305q0 244 322 447q-47 72 -82 171t-35 183q0 129 90 212q89 83 231 83t228 -74
t86 -196t-96 -224q-96 -101 -216 -186q115 -207 334 -446q37 47 76 152t57 220l136 -32q-23 -117 -68 -241t-98 -200q45 -49 123 -87t120 -38zM766 1217q0 71 -44 113t-112 42t-110 -52t-41 -138q0 -86 86 -248q89 57 155 134t66 149z" />
    <glyph glyph-name="quotesingle" unicode="'" horiz-adv-x="454" 
d="M164 926v553h127v-553h-127z" />
    <glyph glyph-name="parenleft" unicode="(" horiz-adv-x="681" 
d="M135 666q0 460 281 833h159q-149 -203 -221 -401t-71 -441q0 -418 290 -829h-151q-287 378 -287 838z" />
    <glyph glyph-name="parenright" unicode=")" horiz-adv-x="681" 
d="M547 660q0 -460 -281 -832h-160q150 204 222 402t71 440q0 418 -290 829h151q287 -379 287 -839z" />
    <glyph glyph-name="asterisk" unicode="*" 
d="M455 1114l-303 47l36 133l281 -133l12 8l-45 310h137l-36 -305l14 -13l270 142l51 -138l-305 -63l-6 -17l217 -217l-110 -86l-150 275h-16l-150 -271l-106 80l213 234z" />
    <glyph glyph-name="plus" unicode="+" horiz-adv-x="1228" 
d="M551 596v469h127v-469h469v-127h-469v-469h-127v469h-469v127h469z" />
    <glyph glyph-name="comma" unicode="," horiz-adv-x="624" 
d="M412 225v-225l-129 -303h-86l96 303h-82v225h201z" />
    <glyph glyph-name="hyphen" unicode="-" horiz-adv-x="681" 
d="M598 469h-516v127h516v-127z" />
    <glyph glyph-name="period" unicode="." horiz-adv-x="624" 
d="M211 225h201v-225h-201v225z" />
    <glyph glyph-name="slash" unicode="/" horiz-adv-x="569" 
d="M461 1499h125l-480 -1519h-122z" />
    <glyph glyph-name="zero" unicode="0" horiz-adv-x="1251" 
d="M258 739q0 -329 91 -481t275 -152t276 152q91 152 91 482t-91 481t-275 151t-276 -151q-91 -152 -91 -482zM102 739q0 760 522 760t523 -760q0 -760 -522 -759q-523 -1 -523 759z" />
    <glyph glyph-name="one" unicode="1" horiz-adv-x="1251" 
d="M973 0h-656v127h256v1202l-284 -29v97q231 70 284 102h148v-1372h252v-127z" />
    <glyph glyph-name="two" unicode="2" horiz-adv-x="1251" 
d="M1096 127v-127h-961v156q70 141 181 257q112 117 215 189t199 142q212 158 212 358q0 129 -79 200q-79 70 -223 70t-234 -96t-111 -225l-145 32q96 416 497 416q191 0 321 -105t130 -288q0 -125 -68 -234q-68 -110 -172 -192t-213 -161q-281 -204 -354 -392h805z" />
    <glyph glyph-name="three" unicode="3" horiz-adv-x="1251" 
d="M594 106q162 0 255 77t93 210q0 332 -418 332h-145v127h88q217 0 319 69t102 193t-79 191q-80 67 -198 67q-117 0 -191 -48t-158 -157l-121 82q180 250 477 250q199 0 313 -97t113 -272q0 -124 -66 -206t-163 -121q283 -109 283 -393q0 -190 -137 -310t-367 -120
q-188 0 -322 88t-202 202l118 82q182 -246 406 -246z" />
    <glyph glyph-name="four" unicode="4" horiz-adv-x="1251" 
d="M758 475v848h-6l-519 -848h525zM1159 348h-254v-348h-147v348h-680v127l610 1004h217v-1004h254v-127z" />
    <glyph glyph-name="five" unicode="5" horiz-adv-x="1251" 
d="M1026 1479v-127h-635l-37 -473q132 121 316 121t322 -132q138 -131 138 -368q0 -188 -112 -343q-128 -177 -418 -177q-154 0 -262 76t-191 206l134 70q121 -225 342 -226q156 0 254 98t98 280t-90 285t-242 103q-104 0 -185 -59t-126 -164l-129 29l65 801h758z" />
    <glyph glyph-name="six" unicode="6" horiz-adv-x="1251" 
d="M638 106q155 0 245 96t90 254q0 159 -92 253t-223 94t-249 -95t-126 -221q6 -161 103 -271t252 -110zM733 1372q-190 0 -321 -159t-133 -459q80 84 173 130t232 46q180 0 312 -125t132 -350t-140 -351t-337 -124q-528 0 -528 684q0 364 159 600t447 235q111 1 197 -25
t123 -61l-64 -125q-106 84 -252 84z" />
    <glyph glyph-name="seven" unicode="7" horiz-adv-x="1251" 
d="M152 1352v127h938v-90l-625 -1389h-172l608 1352h-749z" />
    <glyph glyph-name="eight" unicode="8" horiz-adv-x="1251" 
d="M946 1146q0 108 -94 167t-227 59t-227 -59t-95 -174q0 -75 58 -137q96 -103 264 -148q135 33 228 109q93 75 93 183zM624 106q186 0 285 84t99 199t-104 190t-306 142q-142 -61 -249 -136q-107 -76 -107 -193q0 -118 98 -202t284 -84zM1163 385q0 -178 -139 -292
q-139 -113 -399 -113t-400 113q-139 114 -139 292q0 252 324 401v5q-123 47 -193 136t-70 203q-1 176 133 272t345 97q211 0 344 -96t133 -273q0 -116 -70 -204t-192 -135v-5q141 -50 232 -154t91 -247z" />
    <glyph glyph-name="nine" unicode="9" horiz-adv-x="1251" 
d="M615 1372q-157 0 -247 -95t-89 -254q0 -159 92 -253t220 -94t228 77t146 197q-5 194 -99 308t-251 114zM518 106q184 0 313 162t142 457q-80 -84 -172 -130t-234 -46q-180 0 -312 125t-132 350t140 350t337 125q528 0 528 -684q0 -365 -158 -601t-448 -234
q-110 0 -196 26t-123 60l63 124q106 -84 252 -84z" />
    <glyph glyph-name="colon" unicode=":" horiz-adv-x="624" 
d="M412 594h-201v225h201v-225zM412 0h-201v225h201v-225z" />
    <glyph glyph-name="semicolon" unicode=";" horiz-adv-x="624" 
d="M412 594h-201v225h201v-225zM412 225v-225l-129 -303h-86l96 303h-82v225h201z" />
    <glyph glyph-name="less" unicode="&#x3c;" horiz-adv-x="1228" 
d="M1135 127v-127l-1041 475v115l1041 475v-127l-893 -406z" />
    <glyph glyph-name="equal" unicode="=" horiz-adv-x="1228" 
d="M1147 387v-127h-1065v127h1065zM1147 805v-127h-1065v127h1065z" />
    <glyph glyph-name="greater" unicode="&#x3e;" horiz-adv-x="1228" 
d="M94 127l893 405l-893 406v127l1041 -473v-119l-1041 -473v127z" />
    <glyph glyph-name="question" unicode="?" horiz-adv-x="909" 
d="M276 225h201v-225h-201v225zM451 467h-140v113q0 104 48 192t106 141q57 53 105 128t48 150t-43 128t-121 53t-128 -37t-95 -121l-122 60q102 225 333 225q136 0 234 -84t98 -222t-115 -270q-47 -53 -94 -105q-116 -127 -114 -236v-115z" />
    <glyph glyph-name="at" unicode="@" horiz-adv-x="1638" 
d="M1128 420q113 0 201 136t88 292q0 240 -164 380q-165 140 -417 140t-425 -183t-173 -451t177 -446q177 -177 435 -177q156 0 288 57t218 164h155q-96 -170 -274 -261t-387 -91q-317 0 -539 219q-221 219 -221 537t223 541q223 222 525 222t507 -178q204 -178 203 -451
q0 -141 -47 -258q-82 -205 -272 -289q-79 -36 -145 -36t-106 37t-44 90l-4 -2q-113 -125 -243 -125t-214 94t-84 229q0 215 131 387q130 173 314 173t256 -158l40 123h138l-164 -564q-20 -78 -21 -100q0 -51 45 -51zM553 631q0 -93 36 -147t103 -54q132 0 232 136t100 272
q0 92 -44 140t-103 48q-137 0 -231 -129t-93 -266z" />
    <glyph glyph-name="A" unicode="A" horiz-adv-x="1251" 
d="M221 0h-172l455 1479h244l454 -1479h-172l-139 463h-531zM614 1364l-213 -762h449l-213 762h-23z" />
    <glyph glyph-name="B" unicode="B" horiz-adv-x="1366" 
d="M385 1339v-495h287q172 0 258 74t86 178q0 244 -279 243h-352zM385 705v-566h307q182 0 272 65q89 65 89 203q-1 138 -105 218t-280 80h-283zM221 0v1479h545q188 -1 301 -105t113 -260q0 -254 -250 -340l2 -4q125 -31 205 -133t80 -240q0 -181 -127 -289t-410 -108h-459
z" />
    <glyph glyph-name="C" unicode="C" horiz-adv-x="1251" 
d="M86 730q0 368 148 569q148 200 417 200q395 0 500 -430l-152 -45q-43 168 -127 252t-246 84t-270 -158q-106 -158 -106 -466t110 -463t304 -154q156 0 238 96t122 256l147 -29q-111 -463 -520 -462q-257 0 -411 191t-154 559z" />
    <glyph glyph-name="D" unicode="D" horiz-adv-x="1366" 
d="M205 0v1479h397q308 1 488 -191t180 -538t-176 -548t-500 -202h-389zM369 1339v-1200h221q516 0 516 600q0 311 -134 455t-374 145h-229z" />
    <glyph glyph-name="E" unicode="E" horiz-adv-x="1251" 
d="M221 1479h887v-140h-723v-495h514v-139h-514v-566h764v-139h-928v1479z" />
    <glyph glyph-name="F" unicode="F" horiz-adv-x="1138" 
d="M205 1479h876v-140h-712v-495h528v-139h-528v-705h-164v1479z" />
    <glyph glyph-name="G" unicode="G" horiz-adv-x="1366" 
d="M705 711h497v-711h-135v135h-4q-113 -155 -381 -155t-426 192t-158 568q0 374 158 567t420 192q408 0 532 -434l-155 -31q-53 172 -145 249t-224 77q-184 0 -303 -146t-119 -475q0 -330 119 -475t298 -145t269 92t90 235v125h-333v140z" />
    <glyph glyph-name="H" unicode="H" horiz-adv-x="1478" 
d="M1094 1479h163v-1479h-163v705h-709v-705h-164v1479h164v-635h709v635z" />
    <glyph glyph-name="I" unicode="I" horiz-adv-x="681" 
d="M258 1479h164v-1479h-164v1479z" />
    <glyph glyph-name="J" unicode="J" horiz-adv-x="909" 
d="M541 1479h164v-1098q0 -401 -340 -401q-201 0 -349 190l123 80q82 -131 221 -131q180 0 181 219v1141z" />
    <glyph glyph-name="K" unicode="K" horiz-adv-x="1366" 
d="M401 0h-163v1479h163v-768h5l612 768h194l-458 -557l514 -922h-187l-440 786l-240 -290v-496z" />
    <glyph glyph-name="L" unicode="L" horiz-adv-x="1138" 
d="M1085 0h-864v1479h164v-1340h700v-139z" />
    <glyph glyph-name="M" unicode="M" horiz-adv-x="1705" 
d="M1485 0h-148v1352h-6l-413 -1352h-127l-416 1352h-6v-1352h-148v1479h254l377 -1196h4l371 1196h258v-1479z" />
    <glyph glyph-name="N" unicode="N" horiz-adv-x="1478" 
d="M369 0h-148v1479h236l645 -1139h8v1139h147v-1479h-135l-749 1319h-4v-1319z" />
    <glyph glyph-name="O" unicode="O" horiz-adv-x="1366" 
d="M104 739q0 367 152 564t426 197t426 -198q152 -196 152 -563t-152 -563t-426 -196t-426 196t-152 563zM268 739q0 -309 108 -465t306 -156t306 156t108 465t-108 465t-306 156t-306 -156t-108 -465z" />
    <glyph glyph-name="P" unicode="P" horiz-adv-x="1251" 
d="M369 0h-164v1479h516q225 0 339 -114t114 -302t-136 -296t-407 -108h-262v-659zM369 1339v-540h278q197 1 280 67t83 203q0 270 -326 270h-315z" />
    <glyph glyph-name="Q" unicode="Q" horiz-adv-x="1366" 
d="M1096 763q0 285 -108 441t-306 156t-306 -156t-108 -465t108 -465t306 -155q143 0 240 82q-39 57 -78 85q-40 28 -103 36v157q103 -14 165 -48t112 -103q78 150 78 435zM1331 41v-160q-129 0 -195 44t-132 151q-131 -96 -322 -96q-274 0 -426 196t-152 564q0 366 152 563
t426 197t426 -198q152 -196 152 -563t-152 -563q71 -135 223 -135z" />
    <glyph glyph-name="R" unicode="R" horiz-adv-x="1366" 
d="M369 0h-164v1479h475q238 1 366 -101t128 -288q0 -289 -295 -385l313 -705h-178l-299 672h-346v-672zM369 1339v-528h297q344 0 344 270q0 141 -88 199t-258 59h-295z" />
    <glyph glyph-name="S" unicode="S" horiz-adv-x="1251" 
d="M578 1360q-134 0 -206 -60t-74 -175q-1 -116 162 -195q73 -35 162 -67q89 -31 178 -69t163 -85q73 -47 119 -123t46 -172q0 -184 -118 -310q-119 -124 -364 -124t-374 129q-61 61 -98 119t-72 137l150 53q115 -299 387 -299q158 0 242 74t84 184t-86 182t-208 115
t-244 91t-208 136t-86 217q0 162 124 272q125 110 311 110t313 -93q127 -92 184 -272l-147 -33q-29 114 -118 186q-88 72 -222 72z" />
    <glyph glyph-name="T" unicode="T" horiz-adv-x="1138" 
d="M1094 1339h-443v-1339h-164v1339h-442v140h1049v-140z" />
    <glyph glyph-name="U" unicode="U" horiz-adv-x="1478" 
d="M221 1479h164v-1045q0 -135 93 -225t261 -90t261 90t94 225v1045h163v-1033q0 -217 -142 -342q-141 -124 -375 -124t-376 124t-143 342v1033z" />
    <glyph glyph-name="V" unicode="V" horiz-adv-x="1138" 
d="M494 0l-457 1479h164l364 -1213h4l367 1213h166l-459 -1479h-149z" />
    <glyph glyph-name="W" unicode="W" horiz-adv-x="1705" 
d="M414 0l-357 1479h156l274 -1180h5l286 1180h146l295 -1180h4l270 1180h156l-351 -1479h-145l-303 1196h-4l-287 -1196h-145z" />
    <glyph glyph-name="X" unicode="X" horiz-adv-x="1138" 
d="M565 610l-348 -610h-188l442 772l-414 707h189l317 -543l311 543h189l-404 -707l451 -772h-188z" />
    <glyph glyph-name="Y" unicode="Y" horiz-adv-x="1138" 
d="M487 0v623l-454 856h180l356 -678l357 678h180l-455 -856v-623h-164z" />
    <glyph glyph-name="Z" unicode="Z" horiz-adv-x="1138" 
d="M1047 139v-139h-955v119l742 1220h-674v140h878v-107l-753 -1233h762z" />
    <glyph glyph-name="bracketleft" unicode="[" horiz-adv-x="681" 
d="M156 -152v1631h417v-86h-270v-1459h270v-86h-417z" />
    <glyph glyph-name="backslash" unicode="\" horiz-adv-x="569" 
d="M-16 1499h125l477 -1519h-123z" />
    <glyph glyph-name="bracketright" unicode="]" horiz-adv-x="681" 
d="M526 1479v-1631h-417v86h270v1459h-270v86h417z" />
    <glyph glyph-name="asciicircum" unicode="^" horiz-adv-x="1228" 
d="M227 571h-131l459 908h119l459 -908h-129l-392 768z" />
    <glyph glyph-name="underscore" unicode="_" 
d="M1024 -256h-1024v102h1024v-102z" />
    <glyph glyph-name="grave" unicode="`" horiz-adv-x="569" 
d="M12 1479h224l182 -291h-137z" />
    <glyph glyph-name="a" unicode="a" 
d="M233 270q-1 -70 55 -116q114 -95 292 3q91 50 157 126v292q-504 -88 -504 -305zM516 1085q154 -1 262 -79t107 -240v-537q0 -135 24 -229h-151l-17 147q-152 -168 -352 -167q-129 0 -216 76t-87 216q0 174 147 272t504 163v57q0 195 -219 194q-111 0 -178 -50t-94 -115
l-129 67q125 225 399 225z" />
    <glyph glyph-name="b" unicode="b" horiz-adv-x="1138" 
d="M596 106q139 0 220 109t81 309q0 434 -301 434q-135 0 -268 -147v-561q80 -78 139 -111t129 -33zM180 1479h148v-516l8 4q143 119 288 119t273 -120q66 -60 107 -173q40 -113 40 -263q-1 -412 -287 -523q-73 -28 -149 -27q-164 0 -307 133l-27 -113h-102q8 51 8 233v1246
z" />
    <glyph glyph-name="c" unicode="c" 
d="M229 532q0 -202 76 -314t213 -112q102 0 167 42t126 155l119 -53q-86 -146 -174 -208t-238 -62q-200 0 -318 148t-118 404t118 404t318 149q154 -1 243 -75t146 -213l-137 -49q-68 211 -252 210q-137 0 -213 -112t-76 -314z" />
    <glyph glyph-name="d" unicode="d" horiz-adv-x="1138" 
d="M543 958q-301 0 -301 -434q0 -202 81 -310t220 -108q70 0 129 33t139 111v561q-133 147 -268 147zM811 1479h147v-1246q0 -182 9 -233h-136l-20 104q-39 -53 -115 -89q-148 -70 -320 -5q-171 65 -241 258q-41 113 -41 262q0 406 285 526q72 30 143 29q137 0 281 -118
l8 -4v516z" />
    <glyph glyph-name="e" unicode="e" 
d="M774 631q0 151 -68 239t-192 88q-125 0 -198 -88t-83 -239h541zM82 523q0 265 118 413t306 149q188 -1 302 -121t114 -362v-98h-693q-1 -174 91 -286t225 -112q195 1 295 181l114 -60q-66 -115 -156 -181t-253 -66q-195 0 -329 139t-134 404z" />
    <glyph glyph-name="f" unicode="f" horiz-adv-x="681" 
d="M383 1221v-156h231v-127h-231v-938h-147v938h-181v127h181v121q0 180 61 247t199 66q25 0 131 -10v-131l-107 14q-76 0 -106 -32t-31 -119z" />
    <glyph glyph-name="g" unicode="g" 
d="M500 467q122 0 188 69q66 68 66 178t-69 178t-197 66q-128 0 -196 -68t-67 -176q0 -107 77 -177t198 -70zM180 -132q0 -70 70 -102t242 -32q350 0 354 153q-4 158 -352 158q-176 0 -244 -54q-70 -54 -70 -123zM983 958q-106 0 -164 -28q74 -88 74 -232t-114 -251
q-114 -108 -275 -107q-88 0 -189 29q-84 -25 -84 -99q0 -37 24 -57t64 -20q371 0 519 -70t147 -229q0 -125 -124 -206t-361 -81q-459 0 -459 258q0 76 43 122t137 95q-59 18 -96 60t-37 97t34 93t109 84q-145 111 -145 287t115 279t281 103t272 -73q116 82 229 94v-148z" />
    <glyph glyph-name="h" unicode="h" horiz-adv-x="1138" 
d="M182 1479h148v-557h4q145 164 315 163q131 1 219 -75t88 -236v-774h-147v770q0 188 -174 188q-76 0 -161 -49t-144 -112v-797h-148v1479z" />
    <glyph glyph-name="i" unicode="i" horiz-adv-x="569" 
d="M211 1499h147v-176h-147v176zM211 0v1065h147v-1065h-147z" />
    <glyph glyph-name="j" unicode="j" horiz-adv-x="569" 
d="M387 1499v-176h-147v176h147zM240 1065h147v-1235q0 -98 -59 -160q-60 -62 -150 -63q-90 0 -133 24v121q41 -18 91 -18t77 24t27 82v1225z" />
    <glyph glyph-name="k" unicode="k" 
d="M172 0v1479h147v-953h5l430 539h178l-314 -393l355 -672h-174l-283 545l-197 -226v-319h-147z" />
    <glyph glyph-name="l" unicode="l" horiz-adv-x="569" 
d="M211 1479h147v-1479h-147v1479z" />
    <glyph glyph-name="m" unicode="m" horiz-adv-x="1705" 
d="M315 0h-147v1065h147v-141l9 8q137 154 309 153q100 0 171 -46t101 -121q158 168 338 167q293 0 293 -323v-762h-147v762q0 197 -166 196q-61 0 -121 -28t-90 -56q-31 -27 -86 -79v-795h-148v762q0 197 -166 196q-61 0 -120 -28q-58 -28 -90 -56q-32 -27 -87 -79v-795z
" />
    <glyph glyph-name="n" unicode="n" horiz-adv-x="1138" 
d="M182 1065h148v-143h4q145 164 315 163q131 1 219 -75t88 -236v-774h-147v770q0 188 -174 188q-76 0 -161 -49t-144 -112v-797h-148v1065z" />
    <glyph glyph-name="o" unicode="o" 
d="M948 532q0 -242 -114 -398t-322 -154q-209 0 -323 156q-113 156 -113 396q0 242 113 398q114 156 323 156t323 -156q113 -156 113 -398zM801 532q0 203 -78 315q-78 111 -211 111t-211 -112t-78 -314t78 -314t211 -112t211 112t78 314z" />
    <glyph glyph-name="p" unicode="p" horiz-adv-x="1138" 
d="M897 541q0 201 -81 309t-220 108q-70 0 -129 -32t-139 -111v-561q133 -147 268 -148q301 0 301 435zM328 -393h-148v1458h148v-125h4q43 61 122 103q78 42 154 42q161 0 288 -115q67 -60 108 -173q40 -113 40 -263q-1 -406 -284 -525q-72 -30 -144 -29q-137 0 -280 118
l-8 4v-495z" />
    <glyph glyph-name="q" unicode="q" horiz-adv-x="1138" 
d="M242 541q0 -434 301 -435q135 1 268 148v561q-80 78 -139 111t-129 32q-139 0 -220 -108t-81 -309zM958 -393h-147v495l-8 -4q-143 -118 -288 -118t-273 119q-66 60 -107 173q-41 112 -41 262t41 263q70 192 247 261q73 28 148 27q180 0 283 -133l27 113h118v-1458z" />
    <glyph glyph-name="r" unicode="r" horiz-adv-x="681" 
d="M143 0v1065h148v-211h4q66 117 143 172q78 55 203 55v-147q-133 -2 -214 -87t-136 -257v-590h-148z" />
    <glyph glyph-name="s" unicode="s" horiz-adv-x="909" 
d="M471 106q113 0 171 52t58 125q0 75 -64 119t-157 69q-92 25 -184 55t-155 97q-62 69 -58 191t100 198t252 73q104 -2 208 -54t157 -132l-103 -90q-62 78 -126 114q-64 35 -152 35t-138 -43t-50 -110t62 -107q64 -40 155 -64q91 -26 183 -58t154 -103q63 -72 64 -182
q0 -147 -109 -229t-250 -82t-255 53t-185 149l117 88q115 -164 305 -164z" />
    <glyph glyph-name="t" unicode="t" horiz-adv-x="681" 
d="M37 1065h174v350h147v-350h246v-127h-246v-758q0 -74 121 -74q66 0 131 11v-121q-53 -16 -174 -16t-173 38t-52 138v782h-174v127z" />
    <glyph glyph-name="u" unicode="u" horiz-adv-x="1138" 
d="M956 0h-147v143h-4q-145 -164 -316 -163q-131 0 -219 76t-88 235v774h148v-770q0 -188 174 -189q76 0 161 50t144 112v797h147v-1065z" />
    <glyph glyph-name="v" unicode="v" horiz-adv-x="909" 
d="M877 1065l-320 -1065h-197l-327 1065h149l271 -881h4l270 881h150z" />
    <glyph glyph-name="w" unicode="w" horiz-adv-x="1366" 
d="M322 0l-289 1065h149l215 -819h4l209 819h150l213 -823h4l207 823h149l-284 -1065h-150l-213 823h-4l-211 -823h-149z" />
    <glyph glyph-name="x" unicode="x" horiz-adv-x="909" 
d="M215 1065l234 -379l223 379h166l-299 -506l346 -559h-170l-266 436l-259 -436h-165l335 559l-311 506h166z" />
    <glyph glyph-name="y" unicode="y" horiz-adv-x="909" 
d="M143 -393q-20 0 -106 12v121q61 -6 80 -6q223 0 278 254l-370 1077h155l287 -813h4l250 813h156l-375 -1159q-98 -299 -359 -299z" />
    <glyph glyph-name="z" unicode="z" horiz-adv-x="909" 
d="M848 127v-127h-787v106l582 832h-524v127h725v-107l-582 -831h586z" />
    <glyph glyph-name="braceleft" unicode="{" horiz-adv-x="681" 
d="M98 621v86q127 0 127 159v408q0 225 191 225h127v-86h-78q-92 0 -92 -115v-471q0 -137 -152 -161v-4q152 -25 152 -162v-471q0 -115 92 -115h78v-86h-127q-190 0 -191 225v408q0 160 -127 160z" />
    <glyph glyph-name="bar" unicode="|" horiz-adv-x="454" 
d="M164 -20v1519h127v-1519h-127z" />
    <glyph glyph-name="braceright" unicode="}" horiz-adv-x="681" 
d="M584 707v-86q-127 0 -127 -160v-408q0 -225 -191 -225h-127v86h78q92 0 92 115v471q0 137 152 162v4q-152 25 -152 161v471q0 115 -92 115h-78v86h127q190 0 191 -225v-408q0 -159 127 -159z" />
    <glyph glyph-name="asciitilde" unicode="~" horiz-adv-x="1228" 
d="M822 401q-69 0 -204 70t-236 70t-167 -150l-80 92q100 184 262 185q84 0 238 -70t196 -70q41 0 77 25t55 49q18 25 51 72l80 -90q-45 -59 -72 -91t-79 -62t-121 -30z" />
    <glyph glyph-name="uni00A0" unicode="&#xa0;" horiz-adv-x="624" 
 />
    <glyph glyph-name="exclamdown" unicode="&#xa1;" horiz-adv-x="681" 
d="M442 840h-200v225h200v-225zM451 -414h-218l43 1012h132z" />
    <glyph glyph-name="cent" unicode="&#xa2;" horiz-adv-x="1251" 
d="M621 -20q-80 0 -138 22l-84 -229h-116l100 278q-199 141 -199 481q0 256 118 404t319 149q78 0 133 -18l65 182h117l-84 -231q96 -70 158 -221l-138 -49q-24 82 -71 131l-273 -756q39 -17 117 -17q79 0 143 42t125 155l119 -53q-86 -146 -174 -208t-237 -62zM621 958
q-137 0 -213 -112t-76 -332t102 -326l275 754q-39 16 -88 16z" />
    <glyph glyph-name="sterling" unicode="&#xa3;" horiz-adv-x="1251" 
d="M717 799v-127h-295q12 -51 12 -140q0 -162 -57 -276q33 -16 120 -64t137 -67q50 -18 99 -19q139 0 214 67t102 196l131 -25q-61 -365 -410 -364q-144 0 -245 45q-100 45 -156 77q-57 31 -68 37q-98 -139 -246 -159v159q92 17 162 113t70 219t-15 201h-219v127h201
q-25 156 -25 241q0 211 119 335t332 124q373 0 463 -381l-139 -24q-85 281 -316 278q-164 0 -234 -86t-69 -196q0 -110 21 -291h311z" />
    <glyph glyph-name="currency" unicode="&#xa4;" horiz-adv-x="1251" 
d="M1133 740q0 -178 -111 -316l113 -113l-86 -86l-115 115q-131 -109 -309 -109t-310 109l-114 -115l-86 86l112 113q-111 137 -110 315q0 178 110 316l-112 112l86 86l114 -114q131 109 309 109t310 -109l115 114l86 -86l-113 -112q111 -137 111 -315zM625 350
q165 0 273 106t108 282q0 175 -109 283q-109 107 -273 107t-272 -108t-108 -282q0 -176 108 -282t273 -106z" />
    <glyph glyph-name="yen" unicode="&#xa5;" horiz-adv-x="1251" 
d="M694 479v-479h-139v479h-362v127h362v17l-86 163h-276v127h208l-301 566h148l377 -711l376 711h148l-301 -566h209v-127h-275l-88 -163v-17h363v-127h-363z" />
    <glyph glyph-name="brokenbar" unicode="&#xa6;" horiz-adv-x="454" 
d="M164 926v573h127v-573h-127zM164 -20v573h127v-573h-127z" />
    <glyph glyph-name="section" unicode="&#xa7;" 
d="M378 934q-48 0 -84 -33t-36 -80q0 -73 168 -241q86 -92 131 -123t92 -31t82 32t35 83q0 82 -172 254q-90 91 -129 115t-87 24zM512 -61q61 1 101 37t40 96t-83 162t-182 198t-183 206t-86 177q0 95 62 153t184 64q-106 123 -115 180q-4 25 -4 58q0 94 73 162
q75 68 177 68t169 -40q67 -39 142 -131l-98 -55l-13 16l-20 20q-69 75 -160 79q-59 0 -95 -35t-36 -82t38 -95q38 -47 209 -219t222 -246t51 -167q0 -91 -62 -147t-161 -70q111 -128 111 -240t-74 -186q-73 -74 -191 -74t-201 49t-128 131l104 66q88 -135 209 -135z" />
    <glyph glyph-name="dieresis" unicode="&#xa8;" horiz-adv-x="569" 
d="M213 1208h-180v193h180v-193zM537 1208h-181v193h181v-193z" />
    <glyph glyph-name="copyright" unicode="&#xa9;" horiz-adv-x="1638" 
d="M1442 738q0 274 -179 456t-443 182t-443 -182q-180 -182 -180 -456t179 -454q179 -182 444 -182q266 0 444 182t178 454zM820 1499q316 0 542 -218t227 -542q0 -323 -226 -541q-227 -218 -543 -218t-544 218t-227 542q0 325 227 542q228 217 544 217zM846 274
q-201 0 -324 134t-123 336t119 332t322 130q150 0 254 -83t127 -230h-138q-16 88 -82 139t-159 51q-141 0 -218 -93q-77 -92 -77 -242t82 -250t217 -101q96 -1 160 55t77 146h140q-31 -148 -133 -236t-244 -88z" />
    <glyph glyph-name="ordfeminine" unicode="&#xaa;" horiz-adv-x="614" 
d="M139 1010q0 -33 27 -57t72 -23q108 0 204 88v168q-303 -57 -303 -176zM311 1499q100 0 171 -47t71 -145v-322q0 -84 16 -137h-108l-12 72q-121 -84 -213 -84t-150 46q-57 46 -57 140t96 156t317 102v27q0 98 -134 98t-173 -90l-84 49q82 135 260 135z" />
    <glyph glyph-name="guillemotleft" unicode="&#xab;" 
d="M717 856h143l-264 -324l264 -323h-139l-270 323zM430 856h143l-264 -324l264 -323h-139l-270 323z" />
    <glyph glyph-name="logicalnot" unicode="&#xac;" horiz-adv-x="1228" 
d="M1020 260v418h-938v127h1065v-545h-127z" />
    <glyph glyph-name="uni00AD" unicode="&#xad;" horiz-adv-x="681" 
d="M598 469h-516v127h516v-127z" />
    <glyph glyph-name="registered" unicode="&#xae;" horiz-adv-x="1638" 
d="M1442 738q0 274 -179 456t-443 182t-443 -182q-180 -182 -180 -456t179 -454q179 -182 444 -182q266 0 444 182t178 454zM820 1499q316 0 542 -218t227 -542q0 -323 -226 -541q-227 -218 -543 -218t-544 218t-227 542q0 325 227 542q228 217 544 217zM659 1067v-274h160
q119 1 168 35t49 105t-42 103t-152 31h-183zM659 682v-381h-135v877h336q311 0 311 -250q0 -213 -229 -242l250 -385h-148l-233 381h-152z" />
    <glyph glyph-name="macron" unicode="&#xaf;" horiz-adv-x="569" 
d="M604 1253h-639v123h639v-123z" />
    <glyph glyph-name="degree" unicode="&#xb0;" horiz-adv-x="819" 
d="M213 1204q0 -86 57 -145q58 -59 140 -59t139 58q57 60 57 146t-57 146t-139 59q-82 0 -140 -59q-57 -60 -57 -146zM115 1204q0 123 86 209t209 86q122 0 208 -86t86 -209t-86 -209t-208 -86t-209 86q-86 86 -86 209z" />
    <glyph glyph-name="plusminus" unicode="&#xb1;" horiz-adv-x="1228" 
d="M82 0v127h1065v-127h-1065zM551 698v367h127v-367h469v-127h-469v-366h-127v366h-469v127h469z" />
    <glyph glyph-name="twosuperior" unicode="&#xb2;" horiz-adv-x="749" 
d="M692 598h-635v111q53 100 149 181t174 124q79 43 138 103q60 60 60 129t-48 110t-141 41q-92 0 -152 -52t-83 -128l-95 32q33 109 119 179t220 71q134 0 212 -63q78 -64 78 -168t-65 -185q-66 -80 -148 -126q-82 -45 -175 -115t-132 -142h524v-102z" />
    <glyph glyph-name="threesuperior" unicode="&#xb3;" horiz-adv-x="749" 
d="M227 1022v102h84q238 0 238 154q0 47 -47 83t-126 36t-125 -24t-93 -81l-86 58q117 150 309 149q131 0 205 -58t73 -163q0 -150 -133 -195v-4q84 -27 125 -95t41 -142q0 -115 -88 -186q-88 -70 -224 -70t-224 53t-131 119l81 65q100 -135 261 -135q215 0 215 164
q0 82 -60 126t-203 44h-92z" />
    <glyph glyph-name="acute" unicode="&#xb4;" horiz-adv-x="569" 
d="M334 1479h223l-268 -291h-137z" />
    <glyph glyph-name="mu" unicode="&#xb5;" horiz-adv-x="1138" 
d="M956 0h-147v143h-4q-145 -164 -316 -163q-88 0 -159 32v-405h-148v1458h148v-770q0 -188 174 -189q76 0 161 50t144 112v797h147v-1065z" />
    <glyph glyph-name="paragraph" unicode="&#xb6;" 
d="M449 -172v850q-184 0 -307 115q-122 115 -122 278q0 199 121 303t340 105h568v-103h-146v-1548h-123v1548h-209v-1548h-122z" />
    <glyph glyph-name="periodcentered" unicode="&#xb7;" horiz-adv-x="624" 
d="M184 531q0 53 36 91t90 38t91 -38t37 -90t-37 -90q-37 -36 -91 -36t-90 36t-36 89z" />
    <glyph glyph-name="cedilla" unicode="&#xb8;" horiz-adv-x="569" 
d="M328 -113q84 0 129 -50t43 -128t-67 -123t-172 -45t-202 43l35 90q61 -39 135 -39q115 0 115 89q0 34 -24 56t-68 22q-45 0 -86 -17l-35 39l129 176h98l-96 -119l4 -4q31 10 62 10z" />
    <glyph glyph-name="onesuperior" unicode="&#xb9;" horiz-adv-x="749" 
d="M449 1499v-799h161v-102h-436v102h156v697l-174 -27v68q149 43 182 61h111z" />
    <glyph glyph-name="ordmasculine" unicode="&#xba;" horiz-adv-x="614" 
d="M25 1167q0 154 76 243q77 89 207 89t206 -88t76 -244q0 -155 -76 -243t-206 -88t-206 88t-77 243zM143 1171q0 -238 164 -237q80 0 122 61t42 172t-42 172t-120 61t-122 -61q-44 -62 -44 -168z" />
    <glyph glyph-name="guillemotright" unicode="&#xbb;" 
d="M164 856h143l266 -324l-270 -323h-139l264 323zM451 856h143l266 -324l-270 -323h-139l264 323z" />
    <glyph glyph-name="onequarter" unicode="&#xbc;" horiz-adv-x="1875" 
d="M569 -20h-120l899 1519h127zM473 1499v-799h162v-102h-436v102h155v697l-174 -27v68q149 43 182 61h111zM1501 311v459h-4l-297 -459h301zM1778 209h-166v-209h-111v209h-426v92l379 588h158v-578h166v-102z" />
    <glyph glyph-name="onehalf" unicode="&#xbd;" horiz-adv-x="1875" 
d="M528 -20h-120l899 1519h127zM1761 0h-635v111q52 100 148 181t175 124t138 103t59 129t-48 110t-140 41q-92 -1 -152 -53t-83 -128l-95 33q33 109 119 179t220 71q134 0 212 -63q78 -64 78 -168t-65 -185q-66 -80 -148 -126q-82 -45 -175 -115t-132 -142h524v-102z
M473 1499v-799h162v-102h-436v102h155v697l-174 -27v68q149 43 182 61h111z" />
    <glyph glyph-name="threequarters" unicode="&#xbe;" horiz-adv-x="1875" 
d="M602 -20h-121l899 1519h127zM440 688q215 0 215 164q0 82 -60 126t-202 44h-92v102h84q238 0 238 154q1 47 -47 83t-126 36t-125 -24q-46 -24 -94 -81l-86 58q117 150 310 149q131 0 205 -58t73 -163q0 -150 -133 -195v-4q84 -27 125 -95t41 -142q0 -115 -88 -186
q-88 -70 -224 -70t-225 53q-88 53 -131 119l82 65q102 -135 260 -135zM1501 311v459h-4l-297 -459h301zM1778 209h-166v-209h-111v209h-426v92l379 588h158v-578h166v-102z" />
    <glyph glyph-name="questiondown" unicode="&#xbf;" horiz-adv-x="909" 
d="M633 840h-201v225h201v-225zM459 598h139v-113q0 -104 -48 -192t-106 -141t-105 -128q-48 -75 -48 -150t43 -128t121 -53t128 37t95 120l123 -59q-102 -225 -334 -225q-137 0 -235 84q-97 84 -97 222t115 270q47 54 94 106q115 126 115 235v115z" />
    <glyph glyph-name="Agrave" unicode="&#xc0;" horiz-adv-x="1251" 
d="M354 1847h224l182 -291h-137zM221 0h-172l455 1479h244l454 -1479h-172l-139 463h-531zM614 1364l-213 -762h449l-213 762h-23z" />
    <glyph glyph-name="Aacute" unicode="&#xc1;" horiz-adv-x="1251" 
d="M676 1847h223l-268 -291h-137zM221 0h-172l455 1479h244l454 -1479h-172l-139 463h-531zM614 1364l-213 -762h449l-213 762h-23z" />
    <glyph glyph-name="Acircumflex" unicode="&#xc2;" horiz-adv-x="1251" 
d="M328 1556l200 291h193l205 -291h-164l-137 193l-133 -193h-164zM221 0h-172l455 1479h244l454 -1479h-172l-139 463h-531zM614 1364l-213 -762h449l-213 762h-23z" />
    <glyph glyph-name="Atilde" unicode="&#xc3;" horiz-adv-x="1251" 
d="M778 1593q-52 0 -156 39t-146 39t-68 -31t-29 -65h-103q10 99 66 161t154 62q59 0 149 -38t131 -38q40 0 66 24t32 66h103q-9 -82 -65 -150t-134 -69zM221 0h-172l455 1479h244l454 -1479h-172l-139 463h-531zM614 1364l-213 -762h449l-213 762h-23z" />
    <glyph glyph-name="Adieresis" unicode="&#xc4;" horiz-adv-x="1251" 
d="M555 1577h-180v192h180v-192zM879 1577h-181v192h181v-192zM221 0h-172l455 1479h244l454 -1479h-172l-139 463h-531zM614 1364l-213 -762h449l-213 762h-23z" />
    <glyph glyph-name="Aring" unicode="&#xc5;" horiz-adv-x="1251" 
d="M512 1761q0 -47 34 -81t81 -34t81 34t33 81q0 47 -33 81q-34 34 -81 34t-81 -34t-34 -81zM422 1761q0 85 60 145t144 60t145 -60q60 -60 60 -144t-60 -145t-144 -61q-85 0 -145 60t-60 145zM221 0h-172l455 1479h244l454 -1479h-172l-139 463h-531zM614 1364l-213 -762
h449l-213 762h-23z" />
    <glyph glyph-name="AE" unicode="&#xc6;" horiz-adv-x="2048" 
d="M1018 602v762h-45l-420 -762h465zM1905 1479v-140h-723v-495h514v-139h-514v-566h764v-139h-928v463h-545l-254 -463h-186l833 1479h1039z" />
    <glyph glyph-name="Ccedilla" unicode="&#xc7;" horiz-adv-x="1251" 
d="M688 -113q84 0 129 -50t43 -128t-66 -123t-172 -45t-202 43l35 90q61 -39 135 -39q115 0 115 89q0 34 -24 56q-25 22 -69 22t-86 -17l-34 39l114 158q-240 16 -380 207t-140 551t148 559q148 200 417 200q395 0 500 -430l-152 -45q-43 168 -127 252t-246 84t-270 -158
q-106 -158 -106 -466t110 -463t304 -154q156 0 238 96t122 256l147 -29q-102 -432 -466 -460l-82 -101l4 -4q31 10 61 10z" />
    <glyph glyph-name="Egrave" unicode="&#xc8;" horiz-adv-x="1251" 
d="M412 1847h223l182 -291h-137zM221 1479h887v-140h-723v-495h514v-139h-514v-566h764v-139h-928v1479z" />
    <glyph glyph-name="Eacute" unicode="&#xc9;" horiz-adv-x="1251" 
d="M733 1847h223l-268 -291h-137zM221 1479h887v-140h-723v-495h514v-139h-514v-566h764v-139h-928v1479z" />
    <glyph glyph-name="Ecircumflex" unicode="&#xca;" horiz-adv-x="1251" 
d="M385 1556l201 291h192l205 -291h-164l-137 193l-133 -193h-164zM221 1479h887v-140h-723v-495h514v-139h-514v-566h764v-139h-928v1479z" />
    <glyph glyph-name="Edieresis" unicode="&#xcb;" horiz-adv-x="1251" 
d="M612 1577h-180v192h180v-192zM936 1577h-180v192h180v-192zM221 1479h887v-140h-723v-495h514v-139h-514v-566h764v-139h-928v1479z" />
    <glyph glyph-name="Igrave" unicode="&#xcc;" horiz-adv-x="681" 
d="M70 1847h223l182 -291h-137zM258 1479h164v-1479h-164v1479z" />
    <glyph glyph-name="Iacute" unicode="&#xcd;" horiz-adv-x="681" 
d="M391 1847h223l-268 -291h-137zM258 1479h164v-1479h-164v1479z" />
    <glyph glyph-name="Icircumflex" unicode="&#xce;" horiz-adv-x="681" 
d="M43 1556l201 291h192l205 -291h-164l-137 193l-133 -193h-164zM258 1479h164v-1479h-164v1479z" />
    <glyph glyph-name="Idieresis" unicode="&#xcf;" horiz-adv-x="681" 
d="M270 1577h-180v192h180v-192zM594 1577h-180v192h180v-192zM258 1479h164v-1479h-164v1479z" />
    <glyph glyph-name="Eth" unicode="&#xd0;" horiz-adv-x="1366" 
d="M66 844h139v635h397q308 1 488 -191t180 -538t-176 -548t-500 -202h-389v705h-139v139zM369 844h385v-139h-385v-566h221q516 0 516 600q0 311 -134 455t-374 145h-229v-495z" />
    <glyph glyph-name="Ntilde" unicode="&#xd1;" horiz-adv-x="1478" 
d="M891 1593q-51 0 -155 39t-147 39q-42 0 -69 -31t-28 -65h-103q11 99 67 161t152 62q60 0 150 -38t131 -38t67 24t31 66h103q-8 -82 -64 -150t-135 -69zM369 0h-148v1479h236l645 -1139h8v1139h147v-1479h-135l-749 1319h-4v-1319z" />
    <glyph glyph-name="Ograve" unicode="&#xd2;" horiz-adv-x="1366" 
d="M412 1847h223l182 -291h-137zM104 739q0 367 152 564t426 197t426 -198q152 -196 152 -563t-152 -563t-426 -196t-426 196t-152 563zM268 739q0 -309 108 -465t306 -156t306 156t108 465t-108 465t-306 156t-306 -156t-108 -465z" />
    <glyph glyph-name="Oacute" unicode="&#xd3;" horiz-adv-x="1366" 
d="M733 1847h223l-268 -291h-137zM104 739q0 367 152 564t426 197t426 -198q152 -196 152 -563t-152 -563t-426 -196t-426 196t-152 563zM268 739q0 -309 108 -465t306 -156t306 156t108 465t-108 465t-306 156t-306 -156t-108 -465z" />
    <glyph glyph-name="Ocircumflex" unicode="&#xd4;" horiz-adv-x="1366" 
d="M385 1556l201 291h192l205 -291h-164l-137 193l-133 -193h-164zM104 739q0 367 152 564t426 197t426 -198q152 -196 152 -563t-152 -563t-426 -196t-426 196t-152 563zM268 739q0 -309 108 -465t306 -156t306 156t108 465t-108 465t-306 156t-306 -156t-108 -465z" />
    <glyph glyph-name="Otilde" unicode="&#xd5;" horiz-adv-x="1366" 
d="M836 1593q-52 0 -156 39t-146 39t-70 -31q-26 -31 -28 -65h-102q10 99 66 161t153 62q59 0 149 -38t132 -38t66 24q26 24 32 66h102q-8 -82 -64 -150t-134 -69zM104 739q0 367 152 564t426 197t426 -198q152 -196 152 -563t-152 -563t-426 -196t-426 196t-152 563z
M268 739q0 -309 108 -465t306 -156t306 156t108 465t-108 465t-306 156t-306 -156t-108 -465z" />
    <glyph glyph-name="Odieresis" unicode="&#xd6;" horiz-adv-x="1366" 
d="M612 1577h-180v192h180v-192zM936 1577h-180v192h180v-192zM104 739q0 367 152 564t426 197t426 -198q152 -196 152 -563t-152 -563t-426 -196t-426 196t-152 563zM268 739q0 -309 108 -465t306 -156t306 156t108 465t-108 465t-306 156t-306 -156t-108 -465z" />
    <glyph glyph-name="multiply" unicode="&#xd7;" horiz-adv-x="1228" 
d="M614 618l443 447l90 -90l-442 -443l442 -442l-90 -90l-443 442l-442 -442l-90 90l442 442l-442 443l90 90z" />
    <glyph glyph-name="Oslash" unicode="&#xd8;" horiz-adv-x="1366" 
d="M1260 740q0 -368 -152 -564t-426 -196q-201 0 -340 110l-139 -221h-137l192 305q-154 196 -154 564t152 565t426 196q203 0 336 -106l115 184h143l-170 -270q154 -199 154 -567zM682 119q198 -1 306 155t108 444t-82 441l-590 -940q94 -100 258 -100zM682 1360
q-198 0 -306 -156t-108 -442t82 -438l588 940q-100 96 -256 96z" />
    <glyph glyph-name="Ugrave" unicode="&#xd9;" horiz-adv-x="1478" 
d="M467 1847h223l182 -291h-137zM221 1479h164v-1045q0 -135 93 -225t261 -90t261 90t94 225v1045h163v-1033q0 -217 -142 -342q-141 -124 -375 -124t-376 124t-143 342v1033z" />
    <glyph glyph-name="Uacute" unicode="&#xda;" horiz-adv-x="1478" 
d="M788 1847h224l-269 -291h-137zM221 1479h164v-1045q0 -135 93 -225t261 -90t261 90t94 225v1045h163v-1033q0 -217 -142 -342q-141 -124 -375 -124t-376 124t-143 342v1033z" />
    <glyph glyph-name="Ucircumflex" unicode="&#xdb;" horiz-adv-x="1478" 
d="M440 1556l201 291h193l204 -291h-164l-137 193l-133 -193h-164zM221 1479h164v-1045q0 -135 93 -225t261 -90t261 90t94 225v1045h163v-1033q0 -217 -142 -342q-141 -124 -375 -124t-376 124t-143 342v1033z" />
    <glyph glyph-name="Udieresis" unicode="&#xdc;" horiz-adv-x="1478" 
d="M668 1577h-181v192h181v-192zM991 1577h-180v192h180v-192zM221 1479h164v-1045q0 -135 93 -225t261 -90t261 90t94 225v1045h163v-1033q0 -217 -142 -342q-141 -124 -375 -124t-376 124t-143 342v1033z" />
    <glyph glyph-name="Yacute" unicode="&#xdd;" horiz-adv-x="1138" 
d="M618 1847h224l-269 -291h-137zM487 0v623l-454 856h180l356 -678l357 678h180l-455 -856v-623h-164z" />
    <glyph glyph-name="Thorn" unicode="&#xde;" horiz-adv-x="1251" 
d="M369 0h-164v1479h164v-287h352q225 0 339 -114t114 -302t-136 -296t-407 -107h-262v-373zM369 1053v-541h278q197 0 280 67t83 203q0 270 -326 271h-315z" />
    <glyph glyph-name="germandbls" unicode="&#xdf;" horiz-adv-x="1138" 
d="M889 391q0 193 -95 278t-276 85v127h60q90 -1 156 71t65 178q0 242 -230 242q-117 0 -170 -68t-59 -206v-1098h-147v1135q0 184 110 274q111 90 279 90t266 -98t98 -258q0 -219 -182 -309v-5q272 -80 272 -428q0 -195 -102 -309t-236 -112q-134 0 -225 55l55 121
q58 -50 156 -50t152 80q53 80 53 205z" />
    <glyph glyph-name="agrave" unicode="&#xe0;" 
d="M229 1479h224l182 -291h-137zM233 270q-1 -70 55 -116q114 -95 292 3q91 50 157 126v292q-504 -88 -504 -305zM516 1085q154 -1 262 -79t107 -240v-537q0 -135 24 -229h-151l-17 147q-152 -168 -352 -167q-129 0 -216 76t-87 216q0 174 147 272t504 163v57
q0 195 -219 194q-111 0 -178 -50t-94 -115l-129 67q125 225 399 225z" />
    <glyph glyph-name="aacute" unicode="&#xe1;" 
d="M551 1479h223l-268 -291h-137zM233 270q-1 -70 55 -116q114 -95 292 3q91 50 157 126v292q-504 -88 -504 -305zM516 1085q154 -1 262 -79t107 -240v-537q0 -135 24 -229h-151l-17 147q-152 -168 -352 -167q-129 0 -216 76t-87 216q0 174 147 272t504 163v57
q0 195 -219 194q-111 0 -178 -50t-94 -115l-129 67q125 225 399 225z" />
    <glyph glyph-name="acircumflex" unicode="&#xe2;" 
d="M203 1188l200 291h193l205 -291h-164l-137 192l-133 -192h-164zM233 270q-1 -70 55 -116q114 -95 292 3q91 50 157 126v292q-504 -88 -504 -305zM516 1085q154 -1 262 -79t107 -240v-537q0 -135 24 -229h-151l-17 147q-152 -168 -352 -167q-129 0 -216 76t-87 216
q0 174 147 272t504 163v57q0 195 -219 194q-111 0 -178 -50t-94 -115l-129 67q125 225 399 225z" />
    <glyph glyph-name="atilde" unicode="&#xe3;" 
d="M352 1303q-42 0 -70 -31q-26 -31 -28 -66h-102q10 98 66 160t153 64q59 0 149 -38t131 -38t67 24t32 66h102q-8 -82 -64 -151t-135 -68q-51 0 -155 39t-146 39zM233 270q-1 -70 55 -116q114 -95 292 3q91 50 157 126v292q-504 -88 -504 -305zM516 1085q154 -1 262 -79
t107 -240v-537q0 -135 24 -229h-151l-17 147q-152 -168 -352 -167q-129 0 -216 76t-87 216q0 174 147 272t504 163v57q0 195 -219 194q-111 0 -178 -50t-94 -115l-129 67q125 225 399 225z" />
    <glyph glyph-name="adieresis" unicode="&#xe4;" 
d="M430 1208h-180v193h180v-193zM754 1208h-181v193h181v-193zM233 270q-1 -70 55 -116q114 -95 292 3q91 50 157 126v292q-504 -88 -504 -305zM516 1085q154 -1 262 -79t107 -240v-537q0 -135 24 -229h-151l-17 147q-152 -168 -352 -167q-129 0 -216 76t-87 216
q0 174 147 272t504 163v57q0 195 -219 194q-111 0 -178 -50t-94 -115l-129 67q125 225 399 225z" />
    <glyph glyph-name="aring" unicode="&#xe5;" 
d="M387 1393q0 -47 34 -81t81 -34t81 34t33 81q0 47 -33 81q-34 34 -81 34t-81 -34t-34 -81zM297 1393q0 84 60 144q61 60 145 60t144 -60t60 -144q0 -85 -60 -145t-144 -60t-145 60q-60 61 -60 145zM233 270q-1 -70 55 -116q114 -95 292 3q91 50 157 126v292
q-504 -88 -504 -305zM516 1085q154 -1 262 -79t107 -240v-537q0 -135 24 -229h-151l-17 147q-152 -168 -352 -167q-129 0 -216 76t-87 216q0 174 147 272t504 163v57q0 195 -219 194q-111 0 -178 -50t-94 -115l-129 67q125 225 399 225z" />
    <glyph glyph-name="ae" unicode="&#xe6;" horiz-adv-x="1593" 
d="M1343 631q1 151 -69 239t-189 88q-243 1 -249 -327h507zM1491 504h-655q0 -188 76 -293q77 -104 227 -105q79 0 151 48t119 133l115 -60q-66 -115 -154 -181t-222 -66t-222 38t-156 142q-109 -106 -202 -144t-207 -36q-115 0 -203 74t-88 180q0 196 125 298
q133 113 493 175v57q0 195 -201 194q-106 0 -172 -50t-92 -115l-125 67q52 98 150 162t231 63q215 0 307 -143q116 143 298 143q182 -1 294 -121t113 -362v-98zM217 268q0 -70 51 -116t133 -46t168 54t119 114v301q-185 -35 -313 -97q-158 -75 -158 -210z" />
    <glyph glyph-name="ccedilla" unicode="&#xe7;" 
d="M229 532q0 -202 76 -314t213 -112q102 0 167 42t126 155l119 -53q-78 -130 -157 -194t-202 -74l-82 -101l5 -4q31 10 61 10q84 0 129 -50t43 -128t-67 -123t-172 -45t-201 43l35 90q61 -39 135 -39q115 0 114 89q1 34 -23 56t-69 22t-86 -17l-35 39l115 158
q-182 16 -287 162q-104 146 -104 395t118 397t318 149q154 -1 243 -75t146 -213l-137 -49q-68 211 -252 210q-137 0 -213 -112t-76 -314z" />
    <glyph glyph-name="egrave" unicode="&#xe8;" 
d="M240 1479h223l182 -291h-137zM774 631q0 151 -68 239t-192 88q-125 0 -198 -88t-83 -239h541zM82 523q0 265 118 413t306 149q188 -1 302 -121t114 -362v-98h-693q-1 -174 91 -286t225 -112q195 1 295 181l114 -60q-66 -115 -156 -181t-253 -66q-195 0 -329 139t-134 404
z" />
    <glyph glyph-name="eacute" unicode="&#xe9;" 
d="M561 1479h223l-268 -291h-137zM774 631q0 151 -68 239t-192 88q-125 0 -198 -88t-83 -239h541zM82 523q0 265 118 413t306 149q188 -1 302 -121t114 -362v-98h-693q-1 -174 91 -286t225 -112q195 1 295 181l114 -60q-66 -115 -156 -181t-253 -66q-195 0 -329 139
t-134 404z" />
    <glyph glyph-name="ecircumflex" unicode="&#xea;" 
d="M213 1188l201 291h192l205 -291h-164l-137 192l-133 -192h-164zM774 631q0 151 -68 239t-192 88q-125 0 -198 -88t-83 -239h541zM82 523q0 265 118 413t306 149q188 -1 302 -121t114 -362v-98h-693q-1 -174 91 -286t225 -112q195 1 295 181l114 -60q-66 -115 -156 -181
t-253 -66q-195 0 -329 139t-134 404z" />
    <glyph glyph-name="edieresis" unicode="&#xeb;" 
d="M440 1208h-180v193h180v-193zM764 1208h-180v193h180v-193zM774 631q0 151 -68 239t-192 88q-125 0 -198 -88t-83 -239h541zM82 523q0 265 118 413t306 149q188 -1 302 -121t114 -362v-98h-693q-1 -174 91 -286t225 -112q195 1 295 181l114 -60q-66 -115 -156 -181
t-253 -66q-195 0 -329 139t-134 404z" />
    <glyph glyph-name="igrave" unicode="&#xec;" horiz-adv-x="569" 
d="M12 1479h224l182 -291h-137zM211 0v1065h147v-1065h-147z" />
    <glyph glyph-name="iacute" unicode="&#xed;" horiz-adv-x="569" 
d="M334 1479h223l-268 -291h-137zM211 0v1065h147v-1065h-147z" />
    <glyph glyph-name="icircumflex" unicode="&#xee;" horiz-adv-x="569" 
d="M-14 1188l200 291h193l205 -291h-164l-137 192l-133 -192h-164zM211 0v1065h147v-1065h-147z" />
    <glyph glyph-name="idieresis" unicode="&#xef;" horiz-adv-x="569" 
d="M213 1208h-180v193h180v-193zM537 1208h-181v193h181v-193zM211 0v1065h147v-1065h-147z" />
    <glyph glyph-name="eth" unicode="&#xf0;" 
d="M948 528q0 -248 -112 -398t-325 -150q-212 0 -324 140q-111 140 -111 381t111 380q112 139 325 139q59 0 152 -29q-41 88 -132 189l-217 -119l-69 98l207 113q-105 103 -191 158l129 49q92 -57 174 -140l226 123l61 -102l-199 -113q133 -152 214 -340t81 -379zM512 106
q143 0 216 106t73 288q0 184 -74 288t-215 104t-215 -104t-74 -287t73 -289t216 -106z" />
    <glyph glyph-name="ntilde" unicode="&#xf1;" horiz-adv-x="1138" 
d="M419 1303q-42 0 -69 -31t-28 -66h-103q11 98 67 160t152 64q60 0 150 -38t131 -38t67 24t31 66h103q-8 -82 -64 -151t-135 -68q-51 0 -155 39t-147 39zM182 1065h148v-143h4q145 164 315 163q131 1 219 -75t88 -236v-774h-147v770q0 188 -174 188q-76 0 -161 -49
t-144 -112v-797h-148v1065z" />
    <glyph glyph-name="ograve" unicode="&#xf2;" 
d="M240 1479h223l182 -291h-137zM948 532q0 -242 -114 -398t-322 -154q-209 0 -323 156q-113 156 -113 396q0 242 113 398q114 156 323 156t323 -156q113 -156 113 -398zM801 532q0 203 -78 315q-78 111 -211 111t-211 -112t-78 -314t78 -314t211 -112t211 112t78 314z" />
    <glyph glyph-name="oacute" unicode="&#xf3;" 
d="M561 1479h223l-268 -291h-137zM948 532q0 -242 -114 -398t-322 -154q-209 0 -323 156q-113 156 -113 396q0 242 113 398q114 156 323 156t323 -156q113 -156 113 -398zM801 532q0 203 -78 315q-78 111 -211 111t-211 -112t-78 -314t78 -314t211 -112t211 112t78 314z" />
    <glyph glyph-name="ocircumflex" unicode="&#xf4;" 
d="M213 1188l201 291h192l205 -291h-164l-137 192l-133 -192h-164zM948 532q0 -242 -114 -398t-322 -154q-209 0 -323 156q-113 156 -113 396q0 242 113 398q114 156 323 156t323 -156q113 -156 113 -398zM801 532q0 203 -78 315q-78 111 -211 111t-211 -112t-78 -314
t78 -314t211 -112t211 112t78 314z" />
    <glyph glyph-name="otilde" unicode="&#xf5;" 
d="M362 1303q-42 0 -70 -31q-26 -31 -28 -66h-102q10 98 66 160t153 64q59 0 149 -38t132 -38t66 24q26 24 32 66h102q-8 -82 -64 -151t-134 -68q-52 0 -156 39t-146 39zM948 532q0 -242 -114 -398t-322 -154q-209 0 -323 156q-113 156 -113 396q0 242 113 398
q114 156 323 156t323 -156q113 -156 113 -398zM801 532q0 203 -78 315q-78 111 -211 111t-211 -112t-78 -314t78 -314t211 -112t211 112t78 314z" />
    <glyph glyph-name="odieresis" unicode="&#xf6;" 
d="M440 1208h-180v193h180v-193zM764 1208h-180v193h180v-193zM948 532q0 -242 -114 -398t-322 -154q-209 0 -323 156q-113 156 -113 396q0 242 113 398q114 156 323 156t323 -156q113 -156 113 -398zM801 532q0 203 -78 315q-78 111 -211 111t-211 -112t-78 -314t78 -314
t211 -112t211 112t78 314z" />
    <glyph glyph-name="divide" unicode="&#xf7;" horiz-adv-x="1228" 
d="M487 106q0 52 37 90t90 38t91 -37q37 -37 37 -91t-38 -90q-36 -36 -90 -36t-90 36q-37 36 -37 90zM487 958q0 52 37 90t90 38t91 -37q37 -37 37 -91t-38 -90q-36 -37 -90 -37t-90 37q-37 37 -37 90zM1147 469h-1065v127h1065v-127z" />
    <glyph glyph-name="oslash" unicode="&#xf8;" 
d="M512 958q-133 0 -211 -112q-77 -112 -77 -300t57 -292l385 653q-63 51 -154 51zM948 541q0 -251 -114 -407t-322 -154q-135 0 -223 63l-125 -211h-131l170 289q-127 153 -127 403t113 406q114 156 323 155q129 0 221 -63l125 211h133l-168 -287q125 -154 125 -405z
M743 811l-387 -653q63 -51 156 -52q133 0 211 112q77 112 77 300t-57 293z" />
    <glyph glyph-name="ugrave" unicode="&#xf9;" horiz-adv-x="1138" 
d="M297 1479h223l182 -291h-137zM956 0h-147v143h-4q-145 -164 -316 -163q-131 0 -219 76t-88 235v774h148v-770q0 -188 174 -189q76 0 161 50t144 112v797h147v-1065z" />
    <glyph glyph-name="uacute" unicode="&#xfa;" horiz-adv-x="1138" 
d="M618 1479h224l-269 -291h-137zM956 0h-147v143h-4q-145 -164 -316 -163q-131 0 -219 76t-88 235v774h148v-770q0 -188 174 -189q76 0 161 50t144 112v797h147v-1065z" />
    <glyph glyph-name="ucircumflex" unicode="&#xfb;" horiz-adv-x="1138" 
d="M270 1188l201 291h193l204 -291h-163l-138 192l-133 -192h-164zM956 0h-147v143h-4q-145 -164 -316 -163q-131 0 -219 76t-88 235v774h148v-770q0 -188 174 -189q76 0 161 50t144 112v797h147v-1065z" />
    <glyph glyph-name="udieresis" unicode="&#xfc;" horiz-adv-x="1138" 
d="M498 1208h-181v193h181v-193zM821 1208h-180v193h180v-193zM956 0h-147v143h-4q-145 -164 -316 -163q-131 0 -219 76t-88 235v774h148v-770q0 -188 174 -189q76 0 161 50t144 112v797h147v-1065z" />
    <glyph glyph-name="yacute" unicode="&#xfd;" horiz-adv-x="909" 
d="M504 1479h223l-268 -291h-137zM143 -393q-20 0 -106 12v121q61 -6 80 -6q223 0 278 254l-370 1077h155l287 -813h4l250 813h156l-375 -1159q-98 -299 -359 -299z" />
    <glyph glyph-name="thorn" unicode="&#xfe;" horiz-adv-x="1138" 
d="M897 541q0 201 -81 309t-220 108q-70 0 -129 -32t-139 -111v-561q133 -147 268 -148q301 0 301 435zM328 -393h-148v1872h148v-539h4q43 61 122 103q78 42 154 42q161 0 288 -115q67 -60 108 -173q40 -113 40 -263q-1 -406 -284 -525q-72 -30 -144 -29q-137 0 -280 118
l-8 4v-495z" />
    <glyph glyph-name="ydieresis" unicode="&#xff;" horiz-adv-x="909" 
d="M383 1208h-180v193h180v-193zM707 1208h-181v193h181v-193zM143 -393q-20 0 -106 12v121q61 -6 80 -6q223 0 278 254l-370 1077h155l287 -813h4l250 813h156l-375 -1159q-98 -299 -359 -299z" />
    <glyph glyph-name="dotlessi" unicode="&#x131;" horiz-adv-x="569" 
d="M211 0v1065h147v-1065h-147z" />
    <glyph glyph-name="Lslash" unicode="&#x141;" horiz-adv-x="1138" 
d="M385 139h700v-139h-864v625l-188 -76v139l188 76v715h164v-650l393 160v-139l-393 -160v-551z" />
    <glyph glyph-name="lslash" unicode="&#x142;" horiz-adv-x="569" 
d="M358 0h-147v727l-182 -94v139l182 94v613h147v-537l183 92v-139l-183 -92v-803z" />
    <glyph glyph-name="OE" unicode="&#x152;" horiz-adv-x="2048" 
d="M1044 385v709q0 145 -83 205q-84 60 -256 61q-467 0 -467 -621t467 -620q172 0 256 60q83 61 83 206zM220 200q-146 204 -146 537t152 547q152 215 483 215q88 0 180 -10q143 -10 160 -10h882v-140h-723v-495h514v-139h-514v-566h764v-139h-923l-340 -20q-333 0 -489 220
z" />
    <glyph glyph-name="oe" unicode="&#x153;" horiz-adv-x="1593" 
d="M1384 631q0 151 -68 239t-186 88q-243 1 -249 -327h503zM1532 504h-655q0 -397 278 -398q94 0 167 48t108 133l114 -60q-109 -248 -389 -247q-258 0 -352 194q-115 -195 -344 -194q-184 0 -298 150t-114 402q0 254 114 404t298 149q225 0 344 -190q90 190 340 190
q165 1 277 -121t112 -362v-98zM195 532q1 -202 69 -314t198 -112t198 111t69 315q0 426 -270 426q-127 0 -196 -111q-68 -112 -68 -315z" />
    <glyph glyph-name="Scaron" unicode="&#x160;" horiz-adv-x="1251" 
d="M328 1847h164l133 -192l137 192h164l-205 -291h-193zM578 1360q-134 0 -206 -60t-74 -175q-1 -116 162 -195q73 -35 162 -67q89 -31 178 -69t163 -85q73 -47 119 -123t46 -172q0 -184 -118 -310q-119 -124 -364 -124t-374 129q-61 61 -98 119t-72 137l150 53
q115 -299 387 -299q158 0 242 74t84 184t-86 182t-208 115t-244 91t-208 136t-86 217q0 162 124 272q125 110 311 110t313 -93q127 -92 184 -272l-147 -33q-29 114 -118 186q-88 72 -222 72z" />
    <glyph glyph-name="scaron" unicode="&#x161;" horiz-adv-x="909" 
d="M156 1479h163l134 -193l137 193h164l-205 -291h-193zM471 106q113 0 171 52t58 125q0 75 -64 119t-157 69q-92 25 -184 55t-155 97q-62 69 -58 191t100 198t252 73q104 -2 208 -54t157 -132l-103 -90q-62 78 -126 114q-64 35 -152 35t-138 -43t-50 -110t62 -107
q64 -40 155 -64q91 -26 183 -58t154 -103q63 -72 64 -182q0 -147 -109 -229t-250 -82t-255 53t-185 149l117 88q115 -164 305 -164z" />
    <glyph glyph-name="Ydieresis" unicode="&#x178;" horiz-adv-x="1138" 
d="M498 1577h-181v192h181v-192zM821 1577h-180v192h180v-192zM487 0v623l-454 856h180l356 -678l357 678h180l-455 -856v-623h-164z" />
    <glyph glyph-name="Zcaron" unicode="&#x17d;" horiz-adv-x="1138" 
d="M270 1847h164l133 -192l138 192h163l-204 -291h-193zM1047 139v-139h-955v119l742 1220h-674v140h878v-107l-753 -1233h762z" />
    <glyph glyph-name="zcaron" unicode="&#x17e;" horiz-adv-x="909" 
d="M156 1479h163l134 -193l137 193h164l-205 -291h-193zM848 127v-127h-787v106l582 832h-524v127h725v-107l-582 -831h586z" />
    <glyph glyph-name="florin" unicode="&#x192;" horiz-adv-x="1251" 
d="M248 -266q76 0 116 45t60 160l160 880h-234v123h258l23 119q47 242 132 340t249 98q74 0 112 -16l-34 -133q-41 23 -93 22q-82 0 -126 -66t-83 -249l-22 -111h238v-127h-261l-168 -862q-35 -178 -117 -264t-249 -86q-34 0 -100 12l22 135q41 -20 117 -20z" />
    <glyph glyph-name="circumflex" unicode="&#x2c6;" horiz-adv-x="569" 
d="M-14 1188l200 291h193l205 -291h-164l-137 192l-133 -192h-164z" />
    <glyph glyph-name="caron" unicode="&#x2c7;" horiz-adv-x="569" 
d="M-14 1479h164l133 -193l137 193h164l-205 -291h-193z" />
    <glyph glyph-name="uni02C9" unicode="&#x2c9;" horiz-adv-x="569" 
d="M604 1253h-639v123h639v-123z" />
    <glyph glyph-name="breve" unicode="&#x2d8;" horiz-adv-x="569" 
d="M285 1196q-133 0 -215 71t-101 208h101q33 -160 215 -160t215 160h100q-18 -137 -100 -208t-215 -71z" />
    <glyph glyph-name="dotaccent" unicode="&#x2d9;" horiz-adv-x="569" 
d="M375 1208h-180v193h180v-193z" />
    <glyph glyph-name="ring" unicode="&#x2da;" horiz-adv-x="569" 
d="M170 1393q0 -47 34 -81t81 -34t81 34t33 81q0 47 -33 81q-34 34 -81 34t-81 -34t-34 -81zM80 1393q0 84 60 144t144 60t145 -60q60 -60 60 -144q0 -85 -60 -145t-144 -60t-145 60q-60 61 -60 145z" />
    <glyph glyph-name="ogonek" unicode="&#x2db;" horiz-adv-x="569" 
d="M262 -430q-96 0 -147 48t-52 132q0 213 459 289v-21q-303 -104 -303 -249q0 -104 119 -105q70 0 201 84l32 -61q-143 -117 -309 -117z" />
    <glyph glyph-name="tilde" unicode="&#x2dc;" horiz-adv-x="569" 
d="M134 1303q-42 0 -68 -31t-29 -66h-103q10 98 66 160t154 64q59 0 149 -38t131 -38q85 0 98 90h103q-9 -82 -65 -151t-134 -68q-52 0 -156 39t-146 39z" />
    <glyph glyph-name="hungarumlaut" unicode="&#x2dd;" horiz-adv-x="569" 
d="M489 1479h224l-269 -291h-137zM182 1479h219l-251 -291h-130z" />
    <glyph glyph-name="uni03A9" unicode="&#x3a9;" horiz-adv-x="1634" 
d="M461 111v6q-137 109 -225 279t-89 382q0 309 195 509q194 200 482 200t474 -207t187 -494q0 -219 -92 -395t-226 -274v-6h349v-111h-531v82q152 88 256 265t105 417q-2 146 -58 282t-180 232q-123 96 -287 96q-238 0 -386 -178t-148 -420t105 -426q105 -182 253 -268v-82
h-528v111h344z" />
    <glyph glyph-name="uni03BC" unicode="&#x3bc;" horiz-adv-x="1138" 
d="M956 0h-147v143h-4q-145 -164 -316 -163q-88 0 -159 32v-405h-148v1458h148v-770q0 -188 174 -189q76 0 161 50t144 112v797h147v-1065z" />
    <glyph glyph-name="pi" unicode="&#x3c0;" horiz-adv-x="1261" 
d="M1014 971v-656q0 -211 35 -315h-136q-37 59 -36 299v672h-435q-10 -227 -60 -531t-108 -440h-137q61 158 109 448t59 523q-178 0 -260 -29l-25 90q100 53 312 53h885l-15 -114h-188z" />
    <glyph glyph-name="endash" unicode="&#x2013;" 
d="M0 481v103h1024v-103h-1024z" />
    <glyph glyph-name="emdash" unicode="&#x2014;" horiz-adv-x="2048" 
d="M0 481v103h2048v-103h-2048z" />
    <glyph glyph-name="quoteleft" unicode="&#x2018;" horiz-adv-x="569" 
d="M178 983v225l129 291h86l-96 -291h82v-225h-201z" />
    <glyph glyph-name="quoteright" unicode="&#x2019;" horiz-adv-x="569" 
d="M391 1479v-226l-129 -290h-86l96 290h-82v226h201z" />
    <glyph glyph-name="quotesinglbase" unicode="&#x201a;" horiz-adv-x="569" 
d="M391 225v-225l-129 -291h-86l96 291h-82v225h201z" />
    <glyph glyph-name="quotedblleft" unicode="&#x201c;" 
d="M629 983v225l129 291h86l-96 -291h81v-225h-200zM211 983v225l129 291h86l-96 -291h82v-225h-201z" />
    <glyph glyph-name="quotedblright" unicode="&#x201d;" 
d="M395 1479v-226l-129 -290h-86l96 290h-81v226h200zM813 1479v-226l-129 -290h-86l96 290h-82v226h201z" />
    <glyph glyph-name="quotedblbase" unicode="&#x201e;" 
d="M395 225v-225l-129 -291h-86l96 291h-81v225h200zM813 225v-225l-129 -291h-86l96 291h-82v225h201z" />
    <glyph glyph-name="dagger" unicode="&#x2020;" 
d="M430 1499h164l-49 -426l327 45v-160l-327 54l49 -357l-49 -827h-66l-49 827l49 357l-327 -54v160l327 -45z" />
    <glyph glyph-name="daggerdbl" unicode="&#x2021;" 
d="M545 1012l49 -348l-49 -349l327 54v-160l-327 45l49 -426h-164l49 426l-327 -45v160l327 -54l-49 349l49 348l-327 -54v160l327 -45l-49 426h164l-49 -426l327 45v-160z" />
    <glyph glyph-name="bullet" unicode="&#x2022;" 
d="M141 739q0 153 108 261q107 108 261 108t262 -108t109 -262q0 -154 -109 -262q-108 -108 -262 -108t-262 109q-108 108 -107 262z" />
    <glyph glyph-name="ellipsis" unicode="&#x2026;" horiz-adv-x="2048" 
d="M1606 225h200v-225h-200v225zM924 225h200v-225h-200v225zM242 225h200v-225h-200v225z" />
    <glyph glyph-name="perthousand" unicode="&#x2030;" horiz-adv-x="2048" 
d="M1122 1499l-821 -1519h-121l817 1519h125zM150 1178q0 -76 54 -131t126 -55t130 52q58 54 58 132t-58 131t-126 53t-126 -53t-58 -129zM31 1176q0 125 90 214t213 89t213 -89t90 -214t-90 -214q-90 -90 -213 -90t-213 90t-90 214zM973 487q-69 0 -127 -53t-58 -129
t54 -131t127 -55q72 0 130 53t58 131t-58 131t-126 53zM670 303q0 125 90 214t213 89t213 -89t90 -214t-90 -214t-213 -89t-213 89t-90 214zM1530 305q0 -76 54 -131t126 -55t130 53t58 131t-58 131t-126 53t-126 -53t-58 -129zM1411 303q0 125 90 214t213 89t213 -89
t90 -214t-90 -214t-213 -89t-213 89t-90 214z" />
    <glyph glyph-name="guilsinglleft" unicode="&#x2039;" horiz-adv-x="681" 
d="M377 856h143l-264 -324l264 -323h-139l-270 323z" />
    <glyph glyph-name="guilsinglright" unicode="&#x203a;" horiz-adv-x="681" 
d="M162 856h143l266 -324l-270 -323h-139l264 323z" />
    <glyph glyph-name="fraction" unicode="&#x2044;" horiz-adv-x="342" 
d="M-221 -20h-121l899 1519h127z" />
    <glyph glyph-name="Euro" unicode="&#x20ac;" horiz-adv-x="1251" 
d="M377 799v-181h555l-43 -126h-512q4 -164 107 -275t253 -111q94 0 171 35t114 71t80 91v-170q-136 -153 -360 -153t-362 145t-157 367h-170l43 126h127v181h-170l43 127h127q0 240 138 406t370 167q278 0 428 -213l-57 -168q-139 257 -371 254q-258 0 -337 -293
q-19 -74 -21 -153h663l-43 -127h-616z" />
    <glyph glyph-name="afii61289" unicode="&#x2113;" horiz-adv-x="1067" 
d="M373 1137v-504q176 180 271 335t95 308q0 242 -170 242q-78 0 -137 -92t-59 -289zM604 -10q-174 0 -263 112t-97 281v27q-23 -16 -67 -52t-64 -53l-45 82q172 143 174 145v586q0 266 96 384t230 118t204 -96t70 -242q0 -193 -121 -383t-348 -401v-60q2 -170 76 -255
t178 -85t186 64t129 153l72 -57q-145 -268 -410 -268z" />
    <glyph glyph-name="trademark" unicode="&#x2122;" horiz-adv-x="2027" 
d="M1032 1339v-704h-139v844h215l254 -639l246 639h215v-844h-140v704h-4l-276 -704h-90l-277 704h-4zM770 1479v-111h-262v-733h-139v733h-258v111h659z" />
    <glyph glyph-name="Omega" unicode="&#x2126;" horiz-adv-x="1634" 
d="M461 111v6q-137 109 -225 279t-89 382q0 309 195 509q194 200 482 200t474 -207t187 -494q0 -219 -92 -395t-226 -274v-6h349v-111h-531v82q152 88 256 265t105 417q-2 146 -58 282t-180 232q-123 96 -287 96q-238 0 -386 -178t-148 -420t105 -426q105 -182 253 -268v-82
h-528v111h344z" />
    <glyph glyph-name="estimated" unicode="&#x212e;" horiz-adv-x="1832" 
d="M1448 772v416q0 31 -18 49q-222 217 -516 217t-513 -223q-20 -20 -20 -51v-408q0 -14 12 -14h1047q8 0 8 14zM1759 719h-1366q-12 0 -12 -10v-414q0 -25 18 -47q219 -225 529 -225t532 251h121q-115 -135 -291 -214t-377 -78q-348 0 -595 221q-246 221 -246 535t246 538
q247 223 597 223t597 -222t247 -540v-18z" />
    <glyph glyph-name="partialdiff" unicode="&#x2202;" horiz-adv-x="1204" 
d="M528 98h4q160 0 268 158t134 383q-33 90 -127 171t-229 81q-136 0 -240 -122t-104 -289q0 -166 81 -274q82 -108 213 -108zM1092 850q0 -508 -256 -741q-133 -121 -327 -121q-193 0 -303 146t-110 339q0 233 138 381t331 147q141 0 244 -74q102 -75 143 -149h2
q2 27 2 101q0 291 -126 472t-299 181t-306 -102l-51 96q152 116 373 116t383 -208t162 -584z" />
    <glyph glyph-name="Delta" unicode="&#x2206;" horiz-adv-x="1449" 
d="M211 111h1018l-346 847q-12 35 -76 189q-63 154 -80 209h-10q-11 -42 -69 -184t-70 -177zM70 0v100l577 1405h160l571 -1405v-100h-1308z" />
    <glyph glyph-name="product" unicode="&#x220f;" horiz-adv-x="1552" 
d="M1495 1341h-254v-1544h-133v1544h-664v-1544h-135v1544h-252v121h1438v-121z" />
    <glyph glyph-name="summation" unicode="&#x2211;" horiz-adv-x="1234" 
d="M1184 -203h-1135v90l615 740l-586 741v94h1073v-116h-877v-9l551 -694l-592 -711v-6h951v-129z" />
    <glyph glyph-name="minus" unicode="&#x2212;" horiz-adv-x="1228" 
d="M1147 469h-1065v127h1065v-127z" />
    <glyph glyph-name="uni2215" unicode="&#x2215;" horiz-adv-x="342" 
d="M-221 -20h-121l899 1519h127z" />
    <glyph glyph-name="uni2219" unicode="&#x2219;" horiz-adv-x="624" 
d="M184 531q0 53 36 91t90 38t91 -38t37 -90t-37 -90q-37 -36 -91 -36t-90 36t-36 89z" />
    <glyph glyph-name="radical" unicode="&#x221a;" horiz-adv-x="1257" 
d="M1257 1735l-495 -2052h-127l-363 983l-166 -62l-30 84l282 111l301 -822q6 -23 37 -139l2 -2q6 35 29 141l424 1758h106z" />
    <glyph glyph-name="infinity" unicode="&#x221e;" horiz-adv-x="1701" 
d="M1264 852h-2q-52 0 -110 -31t-91 -59t-87 -87q-54 -58 -65 -69q131 -139 203 -194q72 -56 164 -56t154 74q61 74 61 180q1 106 -63 174t-164 68zM451 356h2q114 0 248 134q17 16 55 56t47 50q-119 141 -174 182q-95 74 -195 74t-162 -75t-60 -178q1 -103 67 -173t172 -70
zM1587 608v-2q0 -150 -97 -245t-233 -95q-98 0 -185 62t-218 202q-101 -112 -169 -168q-115 -94 -248 -95q-132 -1 -228 97t-96 239q0 143 97 239q98 96 226 96t220 -70t206 -196q131 145 195 190q104 76 231 76t213 -92t86 -238z" />
    <glyph glyph-name="integral" unicode="&#x222b;" horiz-adv-x="761" 
d="M338 193q0 169 -15 541t-15 539t25 269q26 102 89 164q76 78 192 78q68 0 119 -33l-26 -94q-31 25 -93 25t-104 -48q-78 -88 -78 -381q0 -159 14 -527t15 -536q0 -520 -299 -522q-84 0 -139 37l26 98q51 -29 103 -28q186 0 186 418z" />
    <glyph glyph-name="approxequal" unicode="&#x2248;" horiz-adv-x="1263" 
d="M394 455q-73 0 -123 -42t-103 -122l-62 51q109 203 302 203q91 0 203 -66q40 -23 49 -27t66 -35q78 -40 148 -40q71 0 120 38t100 124l57 -54q-109 -199 -281 -198q-80 -1 -164 41q-32 16 -136 72t-176 55zM870 651q-77 0 -164 42q-32 15 -136 71t-176 55q-73 0 -123 -43
t-103 -121l-62 52q109 203 304 202q69 0 113 -20t89 -46t51 -29t33 -16q27 -12 37 -18t50 -22t101 -17q61 0 110 39t100 125l57 -53q-109 -201 -281 -201z" />
    <glyph glyph-name="notequal" unicode="&#x2260;" horiz-adv-x="1263" 
d="M1147 852v-92h-404l-153 -328h557v-92h-598l-123 -264l-76 35l109 229h-344v92h385l153 328h-538v92h577l121 258l74 -35l-105 -223h365z" />
    <glyph glyph-name="lessequal" unicode="&#x2264;" horiz-adv-x="1263" 
d="M1145 4h-1030v94h1030v-94zM1141 188l-1014 492v96l1014 490v-111l-910 -424v-4l910 -428v-111z" />
    <glyph glyph-name="greaterequal" unicode="&#x2265;" horiz-adv-x="1263" 
d="M1145 4h-1028v94h1028v-94zM129 1266l1012 -490v-98l-1012 -490v111l907 426v4l-907 426v111z" />
    <glyph glyph-name="lozenge" unicode="&#x25ca;" horiz-adv-x="1259" 
d="M1008 727l-336 619q-31 61 -43 104h-4q-16 -53 -45 -104l-332 -613l338 -620q33 -68 41 -103h6q18 59 39 101zM1135 731l-453 -831h-111l-448 831l450 832h111z" />
    </font>
</defs>
</svg>
